<svg width="16" height="16" viewBox="0 0 16 16" fill="none" xmlns="http://www.w3.org/2000/svg">
<rect width="16" height="16" fill="#F5F5F5"/>
<g clip-path="url(#clip0_1_4)">
<rect width="1440" height="5736" transform="translate(-204 -3960)" fill="#010105"/>
<rect width="1440" height="5736" transform="translate(-204 -3960)" fill="url(#paint0_linear_1_4)" fill-opacity="0.1"/>
<rect width="1440" height="5736" transform="translate(-204 -3960)" fill="url(#paint1_linear_1_4)" fill-opacity="0.1"/>
<g filter="url(#filter0_i_1_4)">
<g clip-path="url(#clip1_1_4)">
<rect x="-44" y="-208" width="1120" height="380" rx="32" fill="#07BDC6"/>
<g clip-path="url(#clip2_1_4)">
<mask id="mask0_1_4" style="mask-type:luminance" maskUnits="userSpaceOnUse" x="-46" y="-325" width="578" height="543">
<path d="M532 -325H-46V218H532V-325Z" fill="white"/>
</mask>
<g mask="url(#mask0_1_4)">
<g opacity="0.2" filter="url(#filter1_f_1_4)">
<path d="M-537.1 442.854L-563.158 418.012L-105.995 -17.795L212.939 -307.214L-79.937 7.04602L-537.1 442.854Z" fill="url(#paint2_linear_1_4)" fill-opacity="0.54"/>
</g>
<g opacity="0.32" filter="url(#filter2_f_1_4)">
<path d="M-319.867 432.376L-345.925 407.535L111.237 -28.272L430.171 -317.691L137.295 -3.43097L-319.867 432.376Z" fill="url(#paint3_linear_1_4)" fill-opacity="0.54"/>
</g>
<g opacity="0.32" filter="url(#filter3_f_1_4)">
<path d="M-236.465 539L-262.523 514.159L194.639 78.352L513.573 -211.067L220.697 103.193L-236.465 539Z" fill="url(#paint4_linear_1_4)" fill-opacity="0.54"/>
</g>
<g opacity="0.2" filter="url(#filter4_f_1_4)">
<path d="M-537.1 442.854L-563.158 418.012L-105.995 -17.795L212.939 -307.214L-79.937 7.04602L-537.1 442.854Z" fill="url(#paint5_linear_1_4)" fill-opacity="0.54"/>
</g>
<g opacity="0.32" filter="url(#filter5_f_1_4)">
<path d="M-319.867 432.376L-345.925 407.535L111.237 -28.272L430.171 -317.691L137.295 -3.43097L-319.867 432.376Z" fill="url(#paint6_linear_1_4)" fill-opacity="0.54"/>
</g>
<g opacity="0.32" filter="url(#filter6_f_1_4)">
<path d="M-236.465 539L-262.523 514.159L194.639 78.352L513.573 -211.067L220.697 103.193L-236.465 539Z" fill="url(#paint7_linear_1_4)" fill-opacity="0.54"/>
</g>
</g>
</g>
<mask id="mask1_1_4" style="mask-type:luminance" maskUnits="userSpaceOnUse" x="-46" y="-215" width="1124" height="432">
<path d="M1078 -215H-46V217H1078V-215Z" fill="white"/>
</mask>
<g mask="url(#mask1_1_4)">
<path opacity="0.3" d="M1074.92 346H1103.18V317.798M1074.92 346V317.798M1074.92 346H1046.66M1103.18 317.798H1074.92M1103.18 317.798V289.595M1074.92 317.798V289.595M1074.92 317.798H1046.66M1046.66 346V317.798M1046.66 346H1018.4M1074.92 289.595H1103.18M1074.92 289.595V261.393M1074.92 289.595H1046.66M1046.66 317.798V289.595M1046.66 317.798H1018.4M1103.18 289.595V261.393M1074.92 261.393H1103.18M1074.92 261.393V233.191M1074.92 261.393H1046.66M1046.66 289.595V261.393M1046.66 289.595H1018.4M1103.18 261.393V233.191M1074.92 233.191H1103.18M1074.92 233.191V204.989M1074.92 233.191H1046.66M1046.66 261.393V233.191M1046.66 261.393H1018.4M1103.18 233.191V204.989M1074.92 204.989H1103.18M1074.92 204.989V176.786M1074.92 204.989H1046.66M1046.66 233.191V204.989M1046.66 233.191H1018.4M1103.18 204.989V176.786M1074.92 176.786H1103.18M1074.92 176.786V148.584M1074.92 176.786H1046.66M1046.66 204.989V176.786M1046.66 204.989H1018.4M1103.18 176.786V148.584M1074.92 148.584H1103.18M1074.92 148.584V120.382M1074.92 148.584H1046.66M1046.66 176.786V148.584M1046.66 176.786H1018.4M1103.18 148.584V120.382M1074.92 120.382H1103.18M1074.92 120.382V92.1794M1074.92 120.382H1046.66M1046.66 148.584V120.382M1046.66 148.584H1018.4M1103.18 120.382V92.1794M1074.92 92.1794H1103.18M1074.92 92.1794V63.9772M1074.92 92.1794H1046.66M1046.66 120.382V92.1794M1046.66 120.382H1018.4M1103.18 92.1794V63.9772M1074.92 63.9772H1103.18M1074.92 63.9772V35.7749M1074.92 63.9772H1046.66M1046.66 92.1794V63.9772M1046.66 92.1794H1018.4M1103.18 63.9772V35.7749M1074.92 35.7749H1103.18M1074.92 35.7749V7.57259M1074.92 35.7749H1046.66M1046.66 63.9772V35.7749M1046.66 63.9772H1018.4M1103.18 35.7749V7.57259M1074.92 7.57259H1103.18M1074.92 7.57259V-20.6297M1074.92 7.57259H1046.66M1046.66 35.7749V7.57259M1046.66 35.7749H1018.4M1103.18 7.57259V-20.6297M1074.92 -20.6297H1103.18M1074.92 -20.6297V-48.832M1074.92 -20.6297H1046.66M1046.66 7.57259V-20.6297M1046.66 7.57259H1018.4M1103.18 -20.6297V-48.832M1074.92 -48.832H1103.18M1074.92 -48.832V-77.0342M1074.92 -48.832H1046.66M1046.66 -20.6297V-48.832M1046.66 -20.6297H1018.4M1103.18 -48.832V-77.0342M1074.92 -77.0342H1103.18M1074.92 -77.0342V-105.237M1074.92 -77.0342H1046.66M1046.66 -48.832V-77.0342M1046.66 -48.832H1018.4M1103.18 -77.0342V-105.237M1074.92 -105.237H1103.18M1074.92 -105.237V-133.439M1074.92 -105.237H1046.66M1046.66 -77.0342V-105.237M1046.66 -77.0342H1018.4M1103.18 -105.237V-133.439M1074.92 -133.439H1103.18M1074.92 -133.439V-161.641M1074.92 -133.439H1046.66M1046.66 -105.237V-133.439M1046.66 -105.237H1018.4M1103.18 -133.439V-161.641M1074.92 -161.641H1103.18M1074.92 -161.641V-189.843M1074.92 -161.641H1046.66M1046.66 -133.439V-161.641M1046.66 -133.439H1018.4M1103.18 -161.641V-189.843M1074.92 -189.843H1103.18M1074.92 -189.843V-218.046M1074.92 -189.843H1046.66M1046.66 -161.641V-189.843M1046.66 -161.641H1018.4M1103.18 -189.843V-218.046H1074.92M1074.92 -218.046H1046.66M1046.66 -189.843V-218.046M1046.66 -189.843H1018.4M1046.66 -218.046H1018.4M1018.4 346V317.798M1018.4 346H990.144M1018.4 317.798V289.595M1018.4 317.798H990.144M1018.4 289.595V261.393M1018.4 289.595H990.144M1018.4 261.393V233.191M1018.4 261.393H990.144M1018.4 233.191V204.989M1018.4 233.191H990.144M1018.4 204.989V176.786M1018.4 204.989H990.144M1018.4 176.786V148.584M1018.4 176.786H990.144M1018.4 148.584V120.382M1018.4 148.584H990.144M1018.4 120.382V92.1794M1018.4 120.382H990.144M1018.4 92.1794V63.9772M1018.4 92.1794H990.144M1018.4 63.9772V35.7749M1018.4 63.9772H990.144M1018.4 35.7749V7.57259M1018.4 35.7749H990.144M1018.4 7.57259V-20.6297M1018.4 7.57259H990.144M1018.4 -20.6297V-48.832M1018.4 -20.6297H990.144M1018.4 -48.832V-77.0342M1018.4 -48.832H990.144M1018.4 -77.0342V-105.237M1018.4 -77.0342H990.144M1018.4 -105.237V-133.439M1018.4 -105.237H990.144M1018.4 -133.439V-161.641M1018.4 -133.439H990.144M1018.4 -161.641V-189.843M1018.4 -161.641H990.144M1018.4 -189.843V-218.046M1018.4 -189.843H990.144M1018.4 -218.046H990.144M990.144 346V317.798M990.144 346H961.887M990.144 317.798V289.595M990.144 317.798H961.887M990.144 289.595V261.393M990.144 289.595H961.887M990.144 261.393V233.191M990.144 261.393H961.887M990.144 233.191V204.989M990.144 233.191H961.887M990.144 204.989V176.786M990.144 204.989H961.887M990.144 176.786V148.584M990.144 176.786H961.887M990.144 148.584V120.382M990.144 148.584H961.887M990.144 120.382V92.1794M990.144 120.382H961.887M990.144 92.1794V63.9772M990.144 92.1794H961.887M990.144 63.9772V35.7749M990.144 63.9772H961.887M990.144 35.7749V7.57259M990.144 35.7749H961.887M990.144 7.57259V-20.6297M990.144 7.57259H961.887M990.144 -20.6297V-48.832M990.144 -20.6297H961.887M990.144 -48.832V-77.0342M990.144 -48.832H961.887M990.144 -77.0342V-105.237M990.144 -77.0342H961.887M990.144 -105.237V-133.439M990.144 -105.237H961.887M990.144 -133.439V-161.641M990.144 -133.439H961.887M990.144 -161.641V-189.843M990.144 -161.641H961.887M990.144 -189.843V-218.046M990.144 -189.843H961.887M990.144 -218.046H961.887M961.887 346V317.798M961.887 346H933.63M961.887 317.798V289.595M961.887 317.798H933.63M961.887 289.595V261.393M961.887 289.595H933.63M961.887 261.393V233.191M961.887 261.393H933.63M961.887 233.191V204.989M961.887 233.191H933.63M961.887 204.989V176.786M961.887 204.989H933.63M961.887 176.786V148.584M961.887 176.786H933.63M961.887 148.584V120.382M961.887 148.584H933.63M961.887 120.382V92.1794M961.887 120.382H933.63M961.887 92.1794V63.9772M961.887 92.1794H933.63M961.887 63.9772V35.7749M961.887 63.9772H933.63M961.887 35.7749V7.57259M961.887 35.7749H933.63M961.887 7.57259V-20.6297M961.887 7.57259H933.63M961.887 -20.6297V-48.832M961.887 -20.6297H933.63M961.887 -48.832V-77.0342M961.887 -48.832H933.63M961.887 -77.0342V-105.237M961.887 -77.0342H933.63M961.887 -105.237V-133.439M961.887 -105.237H933.63M961.887 -133.439V-161.641M961.887 -133.439H933.63M961.887 -161.641V-189.843M961.887 -161.641H933.63M961.887 -189.843V-218.046M961.887 -189.843H933.63M961.887 -218.046H933.63M933.63 346V317.798M933.63 346H905.373M933.63 317.798V289.595M933.63 317.798H905.373M933.63 289.595V261.393M933.63 289.595H905.373M933.63 261.393V233.191M933.63 261.393H905.373M933.63 233.191V204.989M933.63 233.191H905.373M933.63 204.989V176.786M933.63 204.989H905.373M933.63 176.786V148.584M933.63 176.786H905.373M933.63 148.584V120.382M933.63 148.584H905.373M933.63 120.382V92.1794M933.63 120.382H905.373M933.63 92.1794V63.9772M933.63 92.1794H905.373M933.63 63.9772V35.7749M933.63 63.9772H905.373M933.63 35.7749V7.57259M933.63 35.7749H905.373M933.63 7.57259V-20.6297M933.63 7.57259H905.373M933.63 -20.6297V-48.832M933.63 -20.6297H905.373M933.63 -48.832V-77.0342M933.63 -48.832H905.373M933.63 -77.0342V-105.237M933.63 -77.0342H905.373M933.63 -105.237V-133.439M933.63 -105.237H905.373M933.63 -133.439V-161.641M933.63 -133.439H905.373M933.63 -161.641V-189.843M933.63 -161.641H905.373M933.63 -189.843V-218.046M933.63 -189.843H905.373M933.63 -218.046H905.373M905.373 346V317.798M905.373 346H877.116M905.373 317.798V289.595M905.373 317.798H877.116M905.373 289.595V261.393M905.373 289.595H877.116M905.373 261.393V233.191M905.373 261.393H877.116M905.373 233.191V204.989M905.373 233.191H877.116M905.373 204.989V176.786M905.373 204.989H877.116M905.373 176.786V148.584M905.373 176.786H877.116M905.373 148.584H877.116M905.373 148.584V120.382M905.373 120.382V92.1794M905.373 120.382H877.116M905.373 92.1794V63.9772M905.373 92.1794H877.116M905.373 63.9772V35.7749M905.373 63.9772H877.116M905.373 35.7749V7.57259M905.373 35.7749H877.116M905.373 7.57259V-20.6297M905.373 7.57259H877.116M905.373 -20.6297V-48.832M905.373 -20.6297H877.116M905.373 -48.832V-77.0342M905.373 -48.832H877.116M905.373 -77.0342V-105.237M905.373 -77.0342H877.116M905.373 -105.237V-133.439M905.373 -105.237H877.116M905.373 -133.439V-161.641M905.373 -133.439H877.116M905.373 -161.641V-189.843M905.373 -161.641H877.116M905.373 -189.843V-218.046M905.373 -189.843H877.116M905.373 -218.046H877.116M877.116 346V317.798M877.116 346H848.853M877.116 317.798V289.595M877.116 317.798H848.853M877.116 289.595V261.393M877.116 289.595H848.853M877.116 261.393V233.191M877.116 261.393H848.853M877.116 233.191V204.989M877.116 233.191H848.853M877.116 204.989V176.786M877.116 204.989H848.853M877.116 176.786V148.584M877.116 176.786H848.853M877.116 148.584V120.382M877.116 148.584H848.853M877.116 120.382V92.1794M877.116 120.382H848.853M877.116 92.1794V63.9772M877.116 92.1794H848.853M877.116 63.9772V35.7749M877.116 63.9772H848.853M877.116 35.7749V7.57259M877.116 35.7749H848.853M877.116 7.57259V-20.6297M877.116 7.57259H848.853M877.116 -20.6297V-48.832M877.116 -20.6297H848.853M877.116 -48.832V-77.0342M877.116 -48.832H848.853M877.116 -77.0342V-105.237M877.116 -77.0342H848.853M877.116 -105.237V-133.439M877.116 -105.237H848.853M877.116 -133.439V-161.641M877.116 -133.439H848.853M877.116 -161.641V-189.843M877.116 -161.641H848.853M877.116 -189.843V-218.046M877.116 -189.843H848.853M877.116 -218.046H848.853M848.853 346V317.798M848.853 346H820.597M848.853 317.798V289.595M848.853 317.798H820.597M848.853 289.595V261.393M848.853 289.595H820.597M848.853 261.393V233.191M848.853 261.393H820.597M848.853 233.191V204.989M848.853 233.191H820.597M848.853 204.989V176.786M848.853 204.989H820.597M848.853 176.786V148.584M848.853 176.786H820.597M848.853 148.584V120.382M848.853 148.584H820.597M848.853 120.382V92.1794M848.853 120.382H820.597M848.853 92.1794V63.9772M848.853 92.1794H820.597M848.853 63.9772V35.7749M848.853 63.9772H820.597M848.853 35.7749V7.57259M848.853 35.7749H820.597M848.853 7.57259V-20.6297M848.853 7.57259H820.597M848.853 -20.6297V-48.832M848.853 -20.6297H820.597M848.853 -48.832V-77.0342M848.853 -48.832H820.597M848.853 -77.0342V-105.237M848.853 -77.0342H820.597M848.853 -105.237V-133.439M848.853 -105.237H820.597M848.853 -133.439V-161.641M848.853 -133.439H820.597M848.853 -161.641V-189.843M848.853 -161.641H820.597M848.853 -189.843V-218.046M848.853 -189.843H820.597M848.853 -218.046H820.597M820.597 346V317.798M820.597 346H792.339M820.597 317.798V289.595M820.597 317.798H792.339M820.597 289.595V261.393M820.597 289.595H792.339M820.597 261.393V233.191M820.597 261.393H792.339M820.597 233.191V204.989M820.597 233.191H792.339M820.597 204.989V176.786M820.597 204.989H792.339M820.597 176.786V148.584M820.597 176.786H792.339M820.597 148.584V120.382M820.597 148.584H792.339M820.597 120.382V92.1794M820.597 120.382H792.339M820.597 92.1794V63.9772M820.597 92.1794H792.339M820.597 63.9772V35.7749M820.597 63.9772H792.339M820.597 35.7749V7.57259M820.597 35.7749H792.339M820.597 7.57259V-20.6297M820.597 7.57259H792.339M820.597 -20.6297V-48.832M820.597 -20.6297H792.339M820.597 -48.832V-77.0342M820.597 -48.832H792.339M820.597 -77.0342V-105.237M820.597 -77.0342H792.339M820.597 -105.237V-133.439M820.597 -105.237H792.339M820.597 -133.439V-161.641M820.597 -133.439H792.339M820.597 -161.641V-189.843M820.597 -161.641H792.339M820.597 -189.843V-218.046M820.597 -189.843H792.339M820.597 -218.046H792.339M792.339 346V317.798M792.339 346H764.081M792.339 317.798V289.595M792.339 317.798H764.081M792.339 289.595V261.393M792.339 289.595H764.081M792.339 261.393V233.191M792.339 261.393H764.081M792.339 233.191V204.989M792.339 233.191H764.081M792.339 204.989V176.786M792.339 204.989H764.081M792.339 176.786V148.584M792.339 176.786H764.081M792.339 148.584V120.382M792.339 148.584H764.081M792.339 120.382V92.1794M792.339 120.382H764.081M792.339 92.1794V63.9772M792.339 92.1794H764.081M792.339 63.9772V35.7749M792.339 63.9772H764.081M792.339 35.7749V7.57259M792.339 35.7749H764.081M792.339 7.57259V-20.6297M792.339 7.57259H764.081M792.339 -20.6297V-48.832M792.339 -20.6297H764.081M792.339 -48.832V-77.0342M792.339 -48.832H764.081M792.339 -77.0342V-105.237M792.339 -77.0342H764.081M792.339 -105.237V-133.439M792.339 -105.237H764.081M792.339 -133.439V-161.641M792.339 -133.439H764.081M792.339 -161.641V-189.843M792.339 -161.641H764.081M792.339 -189.843V-218.046M792.339 -189.843H764.081M792.339 -218.046H764.081M764.081 346V317.798M764.081 346H735.823M764.081 317.798V289.595M764.081 317.798H735.823M764.081 289.595V261.393M764.081 289.595H735.823M764.081 261.393V233.191M764.081 261.393H735.823M764.081 233.191V204.989M764.081 233.191H735.823M764.081 204.989V176.786M764.081 204.989H735.823M764.081 176.786V148.584M764.081 176.786H735.823M764.081 148.584V120.382M764.081 148.584H735.823M764.081 120.382V92.1794M764.081 120.382H735.823M764.081 92.1794V63.9772M764.081 92.1794H735.823M764.081 63.9772V35.7749M764.081 63.9772H735.823M764.081 35.7749V7.57259M764.081 35.7749H735.823M764.081 7.57259V-20.6297M764.081 7.57259H735.823M764.081 -20.6297V-48.832M764.081 -20.6297H735.823M764.081 -48.832V-77.0342M764.081 -48.832H735.823M764.081 -77.0342V-105.237M764.081 -77.0342H735.823M764.081 -105.237V-133.439M764.081 -105.237H735.823M764.081 -133.439V-161.641M764.081 -133.439H735.823M764.081 -161.641V-189.843M764.081 -161.641H735.823M764.081 -189.843V-218.046M764.081 -189.843H735.823M764.081 -218.046H735.823M735.823 346V317.798M735.823 346H707.564M735.823 317.798V289.595M735.823 317.798H707.564M735.823 289.595V261.393M735.823 289.595H707.564M735.823 261.393V233.191M735.823 261.393H707.564M735.823 233.191V204.989M735.823 233.191H227.178M735.823 204.989V176.786M735.823 204.989H227.178M735.823 176.786V148.584M735.823 176.786H707.564M735.823 148.584V120.382M735.823 148.584H707.564M735.823 120.382V92.1794M735.823 120.382H707.564M735.823 92.1794V63.9772M735.823 92.1794H707.564M735.823 63.9772V35.7749M735.823 63.9772H707.564M735.823 35.7749V7.57259M735.823 35.7749H707.564M735.823 7.57259V-20.6297M735.823 7.57259H707.564M735.823 -20.6297V-48.832M735.823 -20.6297H707.564M735.823 -48.832V-77.0342M735.823 -48.832H707.564M735.823 -77.0342V-105.237M735.823 -77.0342H707.564M735.823 -105.237V-133.439M735.823 -105.237H707.564M735.823 -133.439V-161.641M735.823 -133.439H707.564M735.823 -161.641V-189.843M735.823 -161.641H707.564M735.823 -189.843V-218.046M735.823 -189.843H707.564M735.823 -218.046H707.564M707.564 346V317.798M707.564 346H679.307M707.564 317.798V289.595M707.564 317.798H679.307M707.564 289.595V261.393M707.564 289.595H679.307M707.564 261.393H679.307M707.564 261.393V176.786M227.178 233.191V261.393M227.178 233.191V204.989M227.178 233.191H198.919M227.178 204.989V176.786M227.178 204.989H198.919M707.564 176.786V148.584M707.564 176.786H255.435M707.564 148.584V120.382M707.564 148.584H255.435M707.564 120.382V92.1794M707.564 120.382H679.307M707.564 92.1794V63.9772M707.564 92.1794H679.307M707.564 63.9772V35.7749M707.564 63.9772H679.307M707.564 35.7749V7.57259M707.564 35.7749H679.307M707.564 7.57259V-20.6297M707.564 7.57259H679.307M707.564 -20.6297V-48.832M707.564 -20.6297H679.307M707.564 -48.832V-77.0342M707.564 -48.832H679.307M707.564 -77.0342V-105.237M707.564 -77.0342H679.307M707.564 -105.237V-133.439M707.564 -105.237H679.307M707.564 -133.439V-161.641M707.564 -133.439H679.307M707.564 -161.641V-189.843M707.564 -161.641H679.307M707.564 -189.843V-218.046M707.564 -189.843H679.307M707.564 -218.046H679.307M679.307 346V317.798M679.307 346H651.049M679.307 317.798V289.595M679.307 317.798H651.049M679.307 289.595V261.393M679.307 289.595H651.049M679.307 261.393H651.049M679.307 261.393V120.382M255.435 176.786V261.393M255.435 176.786V148.584M255.435 176.786H227.178M255.435 148.584V120.382M255.435 148.584H227.178M679.307 120.382V92.1794M679.307 120.382H651.049M679.307 92.1794V63.9772M679.307 92.1794H651.049M679.307 63.9772V35.7749M679.307 63.9772H651.049M679.307 35.7749V7.57259M679.307 35.7749H651.049M679.307 7.57259V-20.6297M679.307 7.57259H651.049M679.307 -20.6297V-48.832M679.307 -20.6297H651.049M679.307 -48.832V-77.0342M679.307 -48.832H651.049M679.307 -77.0342V-105.237M679.307 -77.0342H651.049M679.307 -105.237V-133.439M679.307 -105.237H651.049M679.307 -133.439V-161.641M679.307 -133.439H651.049M679.307 -161.641V-189.843M679.307 -161.641H651.049M679.307 -189.843V-218.046M679.307 -189.843H651.049M679.307 -218.046H651.049M651.049 346V317.798M651.049 346H622.79M651.049 317.798V289.595M651.049 317.798H622.79M651.049 289.595V261.393M651.049 289.595H622.79M651.049 261.393H622.79M651.049 261.393V120.382M651.049 120.382V92.1794M651.049 120.382H622.79M651.049 92.1794V63.9772M651.049 92.1794H622.79M651.049 63.9772V35.7749M651.049 63.9772H622.79M651.049 35.7749V7.57259M651.049 35.7749H622.79M651.049 7.57259V-20.6297M651.049 7.57259H622.79M651.049 -20.6297V-48.832M651.049 -20.6297H622.79M651.049 -48.832V-77.0342M651.049 -48.832H622.79M651.049 -77.0342V-105.237M651.049 -77.0342H622.79M651.049 -105.237V-133.439M651.049 -105.237H622.79M651.049 -133.439V-161.641M651.049 -133.439H622.79M651.049 -161.641V-189.843M651.049 -161.641H622.79M651.049 -189.843V-218.046M651.049 -189.843H622.79M651.049 -218.046H622.79M622.79 346V317.798M622.79 346H594.532M622.79 317.798V289.595M622.79 317.798H594.532M622.79 289.595V261.393M622.79 289.595H594.532M622.79 261.393H594.532M622.79 261.393V120.382M622.79 120.382V92.1794M622.79 120.382H594.532M622.79 92.1794V63.9772M622.79 92.1794H594.532M622.79 63.9772V35.7749M622.79 63.9772H594.532M622.79 35.7749V7.57259M622.79 35.7749H594.532M622.79 7.57259V-20.6297M622.79 7.57259H594.532M622.79 -20.6297V-48.832M622.79 -20.6297H594.532M622.79 -48.832V-77.0342M622.79 -48.832H594.532M622.79 -77.0342V-105.237M622.79 -77.0342H594.532M622.79 -105.237V-133.439M622.79 -105.237H594.532M622.79 -133.439V-161.641M622.79 -133.439H594.532M622.79 -161.641V-189.843M622.79 -161.641H594.532M622.79 -189.843V-218.046M622.79 -189.843H594.532M622.79 -218.046H594.532M594.532 346V317.798M594.532 346H566.274M594.532 317.798V289.595M594.532 317.798H566.274M594.532 289.595V261.393M594.532 289.595H566.274M594.532 261.393H566.274M594.532 261.393V120.382M594.532 120.382V92.1794M594.532 120.382H566.274M594.532 92.1794V63.9772M594.532 92.1794H566.274M594.532 63.9772V35.7749M594.532 63.9772H566.274M594.532 35.7749V7.57259M594.532 35.7749H566.274M594.532 7.57259V-20.6297M594.532 7.57259H566.274M594.532 -20.6297V-48.832M594.532 -20.6297H566.274M594.532 -48.832V-77.0342M594.532 -48.832H566.274M594.532 -77.0342V-105.237M594.532 -77.0342H566.274M594.532 -105.237V-133.439M594.532 -105.237H566.274M594.532 -133.439V-161.641M594.532 -133.439H566.274M594.532 -161.641V-189.843M594.532 -161.641H566.274M594.532 -189.843V-218.046M594.532 -189.843H566.274M594.532 -218.046H566.274M566.274 346V317.798M566.274 346H538.016M566.274 317.798V289.595M566.274 317.798H538.016M566.274 289.595V261.393M566.274 289.595H538.016M566.274 261.393H538.016M566.274 261.393V120.382M566.274 120.382V92.1794M566.274 120.382H538.016M566.274 92.1794V63.9772M566.274 92.1794H538.016M566.274 63.9772V35.7749M566.274 63.9772H538.016M566.274 35.7749V7.57259M566.274 35.7749H538.016M566.274 7.57259V-20.6297M566.274 7.57259H538.016M566.274 -20.6297V-48.832M566.274 -20.6297H538.016M566.274 -48.832V-77.0342M566.274 -48.832H538.016M566.274 -77.0342V-105.237M566.274 -77.0342H538.016M566.274 -105.237V-133.439M566.274 -105.237H538.016M566.274 -133.439V-161.641M566.274 -133.439H538.016M566.274 -161.641V-189.843M566.274 -161.641H538.016M566.274 -189.843V-218.046M566.274 -189.843H538.016M566.274 -218.046H538.016M538.016 346V317.798M538.016 346H509.758M538.016 317.798V289.595M538.016 317.798H509.758M538.016 289.595V261.393M538.016 289.595H509.758M538.016 261.393H509.758M538.016 261.393V120.382M538.016 120.382V92.1794M538.016 120.382H509.758M538.016 92.1794V63.9772M538.016 92.1794H509.758M538.016 63.9772V35.7749M538.016 63.9772H509.758M538.016 35.7749V7.57259M538.016 35.7749H509.758M538.016 7.57259V-20.6297M538.016 7.57259H509.758M538.016 -20.6297V-48.832M538.016 -20.6297H509.758M538.016 -48.832V-77.0342M538.016 -48.832H509.758M538.016 -77.0342V-105.237M538.016 -77.0342H509.758M538.016 -105.237V-133.439M538.016 -105.237H509.758M538.016 -133.439V-161.641M538.016 -133.439H509.758M538.016 -161.641V-189.843M538.016 -161.641H509.758M538.016 -189.843V-218.046M538.016 -189.843H509.758M538.016 -218.046H509.758M509.758 346V317.798M509.758 346H481.5M509.758 317.798H481.5M509.758 317.798V289.595M509.758 289.595V261.393M509.758 289.595H481.5M509.758 261.393H481.5M509.758 261.393V120.382M509.758 120.382V92.1794M509.758 120.382H481.5M509.758 92.1794V63.9772M509.758 92.1794H481.5M509.758 63.9772V35.7749M509.758 63.9772H481.5M509.758 35.7749V7.57259M509.758 35.7749H481.5M509.758 7.57259V-20.6297M509.758 7.57259H481.5M509.758 -20.6297V-48.832M509.758 -20.6297H481.5M509.758 -48.832V-77.0342M509.758 -48.832H481.5M509.758 -77.0342V-105.237M509.758 -77.0342H481.5M509.758 -105.237V-133.439M509.758 -105.237H481.5M509.758 -133.439V-161.641M509.758 -133.439H481.5M509.758 -161.641V-189.843M509.758 -161.641H481.5M509.758 -189.843V-218.046M509.758 -189.843H481.5M509.758 -218.046H481.5M481.5 346V317.798M481.5 346H453.242M481.5 317.798H453.242M481.5 317.798V289.595M481.5 289.595V261.393M481.5 289.595H453.242M481.5 261.393H453.242M481.5 261.393V120.382M481.5 120.382V92.1794M481.5 120.382H453.242M481.5 92.1794V63.9772M481.5 92.1794H453.242M481.5 63.9772V35.7749M481.5 63.9772H453.242M481.5 35.7749V7.57259M481.5 35.7749H453.242M481.5 7.57259V-20.6297M481.5 7.57259H453.242M481.5 -20.6297V-48.832M481.5 -20.6297H453.242M481.5 -48.832V-77.0342M481.5 -48.832H453.242M481.5 -77.0342V-105.237M481.5 -77.0342H453.242M481.5 -105.237V-133.439M481.5 -105.237H453.242M481.5 -133.439V-161.641M481.5 -133.439H453.242M481.5 -161.641V-189.843M481.5 -161.641H453.242M481.5 -189.843V-218.046M481.5 -189.843H453.242M481.5 -218.046H453.242M453.242 346V317.798M453.242 346H424.984M453.242 317.798H424.984M453.242 317.798V289.595M453.242 289.595V261.393M453.242 289.595H424.984M453.242 261.393H424.984M453.242 261.393V120.382M453.242 120.382V92.1794M453.242 120.382H424.984M453.242 92.1794V63.9772M453.242 92.1794H424.984M453.242 63.9772V35.7749M453.242 63.9772H424.984M453.242 35.7749V7.57259M453.242 35.7749H424.984M453.242 7.57259V-20.6297M453.242 7.57259H424.984M453.242 -20.6297V-48.832M453.242 -20.6297H424.984M453.242 -48.832V-77.0342M453.242 -48.832H424.984M453.242 -77.0342V-105.237M453.242 -77.0342H424.984M453.242 -105.237V-133.439M453.242 -105.237H424.984M453.242 -133.439V-161.641M453.242 -133.439H424.984M453.242 -161.641V-189.843M453.242 -161.641H424.984M453.242 -189.843V-218.046M453.242 -189.843H424.984M453.242 -218.046H424.984M424.984 346V317.798M424.984 346H396.726M424.984 317.798H396.726M424.984 317.798V289.595M424.984 289.595V261.393M424.984 289.595H396.726M424.984 261.393H396.726M424.984 261.393V120.382M424.984 120.382V92.1794M424.984 120.382H396.726M424.984 92.1794V63.9772M424.984 92.1794H396.726M424.984 63.9772V35.7749M424.984 63.9772H396.726M424.984 35.7749V7.57259M424.984 35.7749H396.726M424.984 7.57259V-20.6297M424.984 7.57259H396.726M424.984 -20.6297V-48.832M424.984 -20.6297H396.726M424.984 -48.832V-77.0342M424.984 -48.832H396.726M424.984 -77.0342V-105.237M424.984 -77.0342H396.726M424.984 -105.237V-133.439M424.984 -105.237H396.726M424.984 -133.439V-161.641M424.984 -133.439H396.726M424.984 -161.641V-189.843M424.984 -161.641H396.726M424.984 -189.843V-218.046M424.984 -189.843H396.726M424.984 -218.046H396.726M396.726 346V317.798M396.726 346H368.468M396.726 317.798V289.595M396.726 317.798H368.468M396.726 289.595V261.393M396.726 289.595H368.468M396.726 261.393H368.468M396.726 261.393V120.382M396.726 120.382V92.1794M396.726 120.382H368.468M396.726 92.1794V63.9772M396.726 92.1794H368.468M396.726 63.9772V35.7749M396.726 63.9772H368.468M396.726 35.7749V7.57259M396.726 35.7749H368.468M396.726 7.57259V-20.6297M396.726 7.57259H368.468M396.726 -20.6297V-48.832M396.726 -20.6297H368.468M396.726 -48.832V-77.0342M396.726 -48.832H368.468M396.726 -77.0342V-105.237M396.726 -77.0342H368.468M396.726 -105.237V-133.439M396.726 -105.237H368.468M396.726 -133.439V-161.641M396.726 -133.439H368.468M396.726 -161.641V-189.843M396.726 -161.641H368.468M396.726 -189.843V-218.046M396.726 -189.843H368.468M396.726 -218.046H368.468M368.468 346V317.798M368.468 346H340.21M368.468 317.798V289.595M368.468 317.798H340.21M368.468 289.595V261.393M368.468 289.595H340.21M368.468 261.393H340.21M368.468 261.393V120.382M368.468 120.382V92.1794M368.468 120.382H340.21M368.468 92.1794V63.9772M368.468 92.1794H340.21M368.468 63.9772V35.7749M368.468 63.9772H340.21M368.468 35.7749V7.57259M368.468 35.7749H340.21M368.468 7.57259V-20.6297M368.468 7.57259H340.21M368.468 -20.6297V-48.832M368.468 -20.6297H340.21M368.468 -48.832V-77.0342M368.468 -48.832H340.21M368.468 -77.0342V-105.237M368.468 -77.0342H340.21M368.468 -105.237V-133.439M368.468 -105.237H340.21M368.468 -133.439V-161.641M368.468 -133.439H340.21M368.468 -161.641V-189.843M368.468 -161.641H340.21M368.468 -189.843V-218.046M368.468 -189.843H340.21M368.468 -218.046H340.21M340.21 346V317.798M340.21 346H311.951M340.21 317.798V289.595M340.21 317.798H311.951M340.21 289.595V261.393M340.21 289.595H311.951M340.21 261.393H311.951M340.21 261.393V120.382M340.21 120.382V92.1794M340.21 120.382H311.951M340.21 92.1794V63.9772M340.21 92.1794H311.951M340.21 63.9772V35.7749M340.21 63.9772H311.951M340.21 35.7749V7.57259M340.21 35.7749H311.951M340.21 7.57259V-20.6297M340.21 7.57259H311.951M340.21 -20.6297V-48.832M340.21 -20.6297H311.951M340.21 -48.832V-77.0342M340.21 -48.832H311.951M340.21 -77.0342V-105.237M340.21 -77.0342H311.951M340.21 -105.237V-133.439M340.21 -105.237H311.951M340.21 -133.439V-161.641M340.21 -133.439H311.951M340.21 -161.641V-189.843M340.21 -161.641H311.951M340.21 -189.843V-218.046M340.21 -189.843H311.951M340.21 -218.046H311.951M311.951 346V317.798M311.951 346H283.693M311.951 317.798V289.595M311.951 317.798H283.693M311.951 289.595V261.393M311.951 289.595H283.693M311.951 261.393H283.693M311.951 261.393V120.382M311.951 120.382V92.1794M311.951 120.382H283.693M311.951 92.1794V63.9772M311.951 92.1794H283.693M311.951 63.9772V35.7749M311.951 63.9772H283.693M311.951 35.7749V7.57259M311.951 35.7749H283.693M311.951 7.57259V-20.6297M311.951 7.57259H283.693M311.951 -20.6297V-48.832M311.951 -20.6297H283.693M311.951 -48.832V-77.0342M311.951 -48.832H283.693M311.951 -77.0342V-105.237M311.951 -77.0342H283.693M311.951 -105.237V-133.439M311.951 -105.237H283.693M311.951 -133.439V-161.641M311.951 -133.439H283.693M311.951 -161.641V-189.843M311.951 -161.641H283.693M311.951 -189.843V-218.046M311.951 -189.843H283.693M311.951 -218.046H283.693M283.693 346V317.798M283.693 346H255.435M283.693 317.798V289.595M283.693 317.798H255.435M283.693 289.595V261.393M283.693 289.595H255.435M283.693 261.393H255.435M283.693 261.393V120.382M283.693 120.382V92.1794M283.693 120.382H255.435M283.693 92.1794V63.9772M283.693 92.1794H255.435M283.693 63.9772V35.7749M283.693 63.9772H255.435M283.693 35.7749V7.57259M283.693 35.7749H255.435M283.693 7.57259V-20.6297M283.693 7.57259H255.435M283.693 -20.6297V-48.832M283.693 -20.6297H255.435M283.693 -48.832V-77.0342M283.693 -48.832H255.435M283.693 -77.0342V-105.237M283.693 -77.0342H255.435M283.693 -105.237V-133.439M283.693 -105.237H255.435M283.693 -133.439V-161.641M283.693 -133.439H255.435M283.693 -161.641V-189.843M283.693 -161.641H255.435M283.693 -189.843V-218.046M283.693 -189.843H255.435M283.693 -218.046H255.435M255.435 346V317.798M255.435 346H227.178M255.435 317.798V289.595M255.435 317.798H227.178M255.435 289.595V261.393M255.435 289.595H227.178M255.435 261.393H227.178M255.435 120.382V92.1794M255.435 120.382H227.178M255.435 92.1794V63.9772M255.435 92.1794H227.178M255.435 63.9772V35.7749M255.435 63.9772H227.178M255.435 35.7749V7.57259M255.435 35.7749H227.178M255.435 7.57259V-20.6297M255.435 7.57259H227.178M255.435 -20.6297V-48.832M255.435 -20.6297H227.178M255.435 -48.832V-77.0342M255.435 -48.832H227.178M255.435 -77.0342V-105.237M255.435 -77.0342H227.178M255.435 -105.237V-133.439M255.435 -105.237H227.178M255.435 -133.439V-161.641M255.435 -133.439H227.178M255.435 -161.641V-189.843M255.435 -161.641H227.178M255.435 -189.843V-218.046M255.435 -189.843H227.178M255.435 -218.046H227.178M227.178 346V317.798M227.178 346H198.919M227.178 317.798V289.595M227.178 317.798H198.919M227.178 289.595V261.393M227.178 289.595H198.919M227.178 261.393H198.919M227.178 176.786V148.584M227.178 176.786H198.919M227.178 148.584V120.382M227.178 148.584H198.919M227.178 120.382V92.1794M227.178 120.382H198.919M227.178 92.1794V63.9772M227.178 92.1794H198.919M227.178 63.9772V35.7749M227.178 63.9772H198.919M227.178 35.7749V7.57259M227.178 35.7749H198.919M227.178 7.57259V-20.6297M227.178 7.57259H198.919M227.178 -20.6297V-48.832M227.178 -20.6297H198.919M227.178 -48.832V-77.0342M227.178 -48.832H198.919M227.178 -77.0342V-105.237M227.178 -77.0342H198.919M227.178 -105.237V-133.439M227.178 -105.237H198.919M227.178 -133.439V-161.641M227.178 -133.439H198.919M227.178 -161.641V-189.843M227.178 -161.641H198.919M227.178 -189.843V-218.046M227.178 -189.843H198.919M227.178 -218.046H198.919M198.919 346V317.798M198.919 346H170.661M198.919 317.798V289.595M198.919 317.798H170.661M198.919 289.595V261.393M198.919 289.595H170.661M198.919 261.393V233.191M198.919 261.393H170.661M198.919 233.191V204.989M198.919 233.191H170.661M198.919 204.989V176.786M198.919 204.989H170.661M198.919 176.786V148.584M198.919 176.786H170.661M198.919 148.584V120.382M198.919 148.584H170.661M198.919 120.382V92.1794M198.919 120.382H170.661M198.919 92.1794V63.9772M198.919 92.1794H170.661M198.919 63.9772V35.7749M198.919 63.9772H170.661M198.919 35.7749V7.57259M198.919 35.7749H170.661M198.919 7.57259V-20.6297M198.919 7.57259H170.661M198.919 -20.6297V-48.832M198.919 -20.6297H170.661M198.919 -48.832V-77.0342M198.919 -48.832H170.661M198.919 -77.0342V-105.237M198.919 -77.0342H170.661M198.919 -105.237V-133.439M198.919 -105.237H170.661M198.919 -133.439V-161.641M198.919 -133.439H170.661M198.919 -161.641V-189.843M198.919 -161.641H170.661M198.919 -189.843V-218.046M198.919 -189.843H170.661M198.919 -218.046H170.661M170.661 346V317.798M170.661 346H142.403M170.661 317.798V289.595M170.661 317.798H142.403M170.661 289.595V261.393M170.661 289.595H142.403M170.661 261.393V233.191M170.661 261.393H142.403M170.661 233.191V204.989M170.661 233.191H142.403M170.661 204.989V176.786M170.661 204.989H142.403M170.661 176.786V148.584M170.661 176.786H142.403M170.661 148.584V120.382M170.661 148.584H142.403M170.661 120.382V92.1794M170.661 120.382H142.403M170.661 92.1794V63.9772M170.661 92.1794H142.403M170.661 63.9772V35.7749M170.661 63.9772H142.403M170.661 35.7749V7.57259M170.661 35.7749H142.403M170.661 7.57259V-20.6297M170.661 7.57259H142.403M170.661 -20.6297V-48.832M170.661 -20.6297H142.403M170.661 -48.832V-77.0342M170.661 -48.832H142.403M170.661 -77.0342V-105.237M170.661 -77.0342H142.403M170.661 -105.237V-133.439M170.661 -105.237H142.403M170.661 -133.439V-161.641M170.661 -133.439H142.403M170.661 -161.641V-189.843M170.661 -161.641H142.403M170.661 -189.843V-218.046M170.661 -189.843H142.403M170.661 -218.046H142.403M142.403 346V317.798M142.403 346H114.145M142.403 317.798V289.595M142.403 317.798H114.145M142.403 289.595V261.393M142.403 289.595H114.145M142.403 261.393V233.191M142.403 261.393H114.145M142.403 233.191V204.989M142.403 233.191H114.145M142.403 204.989V176.786M142.403 204.989H114.145M142.403 176.786V148.584M142.403 176.786H114.145M142.403 148.584V120.382M142.403 148.584H114.145M142.403 120.382V92.1794M142.403 120.382H114.145M142.403 92.1794V63.9772M142.403 92.1794H114.145M142.403 63.9772V35.7749M142.403 63.9772H114.145M142.403 35.7749V7.57259M142.403 35.7749H114.145M142.403 7.57259V-20.6297M142.403 7.57259H114.145M142.403 -20.6297V-48.832M142.403 -20.6297H114.145M142.403 -48.832V-77.0342M142.403 -48.832H114.145M142.403 -77.0342V-105.237M142.403 -77.0342H114.145M142.403 -105.237V-133.439M142.403 -105.237H114.145M142.403 -133.439V-161.641M142.403 -133.439H114.145M142.403 -161.641V-189.843M142.403 -161.641H114.145M142.403 -189.843V-218.046M142.403 -189.843H114.145M142.403 -218.046H114.145M114.145 346V317.798M114.145 346H85.8868M114.145 317.798V289.595M114.145 317.798H85.8868M114.145 289.595V261.393M114.145 289.595H85.8868M114.145 261.393V233.191M114.145 261.393H85.8868M114.145 233.191V204.989M114.145 233.191H85.8868M114.145 204.989V176.786M114.145 204.989H85.8868M114.145 176.786V148.584M114.145 176.786H85.8868M114.145 148.584V120.382M114.145 148.584H85.8868M114.145 120.382V92.1794M114.145 120.382H85.8868M114.145 92.1794V63.9772M114.145 92.1794H85.8868M114.145 63.9772V35.7749M114.145 63.9772H85.8868M114.145 35.7749V7.57259M114.145 35.7749H85.8868M114.145 7.57259V-20.6297M114.145 7.57259H85.8868M114.145 -20.6297V-48.832M114.145 -20.6297H85.8868M114.145 -48.832V-77.0342M114.145 -48.832H85.8868M114.145 -77.0342V-105.237M114.145 -77.0342H85.8868M114.145 -105.237V-133.439M114.145 -105.237H85.8868M114.145 -133.439V-161.641M114.145 -133.439H85.8868M114.145 -161.641V-189.843M114.145 -161.641H85.8868M114.145 -189.843V-218.046M114.145 -189.843H85.8868M114.145 -218.046H85.8868M85.8868 346V317.798M85.8868 346H57.629M85.8868 317.798V289.595M85.8868 317.798H57.629M85.8868 289.595V261.393M85.8868 289.595H57.629M85.8868 261.393V233.191M85.8868 261.393H57.629M85.8868 233.191V204.989M85.8868 233.191H57.629M85.8868 204.989V176.786M85.8868 204.989H57.629M85.8868 176.786V148.584M85.8868 176.786H57.629M85.8868 148.584V120.382M85.8868 148.584H57.629M85.8868 120.382V92.1794M85.8868 120.382H57.629M85.8868 92.1794V63.9772M85.8868 92.1794H57.629M85.8868 63.9772V35.7749M85.8868 63.9772H57.629M85.8868 35.7749V7.57259M85.8868 35.7749H57.629M85.8868 7.57259V-20.6297M85.8868 7.57259H57.629M85.8868 -20.6297V-48.832M85.8868 -20.6297H57.629M85.8868 -48.832V-77.0342M85.8868 -48.832H57.629M85.8868 -77.0342V-105.237M85.8868 -77.0342H57.629M85.8868 -105.237V-133.439M85.8868 -105.237H57.629M85.8868 -133.439V-161.641M85.8868 -133.439H57.629M85.8868 -161.641V-189.843M85.8868 -161.641H57.629M85.8868 -189.843V-218.046M85.8868 -189.843H57.629M85.8868 -218.046H57.629M57.629 346V317.798M57.629 346H29.3707M57.629 317.798V289.595M57.629 317.798H29.3707M57.629 289.595V261.393M57.629 289.595H29.3707M57.629 261.393V233.191M57.629 261.393H29.3707M57.629 233.191V204.989M57.629 233.191H29.3707M57.629 204.989V176.786M57.629 204.989H29.3707M57.629 176.786V148.584M57.629 176.786H29.3707M57.629 148.584H29.3707M57.629 148.584V120.382M57.629 120.382V92.1794M57.629 120.382H29.3707M57.629 92.1794V63.9772M57.629 92.1794H29.3707M57.629 63.9772V35.7749M57.629 63.9772H29.3707M57.629 35.7749V7.57259M57.629 35.7749H29.3707M57.629 7.57259V-20.6297M57.629 7.57259H29.3707M57.629 -20.6297V-48.832M57.629 -20.6297H29.3707M57.629 -48.832V-77.0342M57.629 -48.832H29.3707M57.629 -77.0342V-105.237M57.629 -77.0342H29.3707M57.629 -105.237V-133.439M57.629 -105.237H29.3707M57.629 -133.439V-161.641M57.629 -133.439H29.3707M57.629 -161.641V-189.843M57.629 -161.641H29.3707M57.629 -189.843V-218.046M57.629 -189.843H29.3707M57.629 -218.046H29.3707M29.3707 346V317.798M29.3707 346H1.11252M29.3707 317.798V289.595M29.3707 317.798H1.11252M29.3707 289.595V261.393M29.3707 289.595H1.11252M29.3707 261.393V233.191M29.3707 261.393H1.11252M29.3707 233.191V204.989M29.3707 233.191H1.11252M29.3707 204.989V176.786M29.3707 204.989H1.11252M29.3707 176.786V148.584M29.3707 176.786H1.11252M29.3707 148.584V120.382M29.3707 148.584H1.11252M29.3707 120.382V92.1794M29.3707 120.382H1.11252M29.3707 92.1794V63.9772M29.3707 92.1794H1.11252M29.3707 63.9772V35.7749M29.3707 63.9772H1.11252M29.3707 35.7749V7.57259M29.3707 35.7749H1.11252M29.3707 7.57259V-20.6297M29.3707 7.57259H1.11252M29.3707 -20.6297V-48.832M29.3707 -20.6297H1.11252M29.3707 -48.832V-77.0342M29.3707 -48.832H1.11252M29.3707 -77.0342V-105.237M29.3707 -77.0342H1.11252M29.3707 -105.237V-133.439M29.3707 -105.237H1.11252M29.3707 -133.439V-161.641M29.3707 -133.439H1.11252M29.3707 -161.641V-189.843M29.3707 -161.641H1.11252M29.3707 -189.843V-218.046M29.3707 -189.843H1.11252M29.3707 -218.046H1.11252M1.11252 346V317.798M1.11252 346H-27.1457M1.11252 317.798V289.595M1.11252 317.798H-27.1457M1.11252 289.595V261.393M1.11252 289.595H-27.1457M1.11252 261.393V233.191M1.11252 261.393H-27.1457M1.11252 233.191V204.989M1.11252 233.191H-27.1457M1.11252 204.989V176.786M1.11252 204.989H-27.1457M1.11252 176.786V148.584M1.11252 176.786H-27.1457M1.11252 148.584V120.382M1.11252 148.584H-27.1457M1.11252 120.382V92.1794M1.11252 120.382H-27.1457M1.11252 92.1794V63.9772M1.11252 92.1794H-27.1457M1.11252 63.9772V35.7749M1.11252 63.9772H-27.1457M1.11252 35.7749V7.57259M1.11252 35.7749H-27.1457M1.11252 7.57259V-20.6297M1.11252 7.57259H-27.1457M1.11252 -20.6297V-48.832M1.11252 -20.6297H-27.1457M1.11252 -48.832V-77.0342M1.11252 -48.832H-27.1457M1.11252 -77.0342V-105.237M1.11252 -77.0342H-27.1457M1.11252 -105.237V-133.439M1.11252 -105.237H-27.1457M1.11252 -133.439V-161.641M1.11252 -133.439H-27.1457M1.11252 -161.641V-189.843M1.11252 -161.641H-27.1457M1.11252 -189.843V-218.046M1.11252 -189.843H-27.1457M1.11252 -218.046H-27.1457M-27.1457 346V317.798M-27.1457 346H-55.4039M-27.1457 317.798V289.595M-27.1457 317.798H-55.4039M-27.1457 289.595V261.393M-27.1457 289.595H-55.4039M-27.1457 261.393V233.191M-27.1457 261.393H-55.4039M-27.1457 233.191V204.989M-27.1457 233.191H-55.4039M-27.1457 204.989V176.786M-27.1457 204.989H-55.4039M-27.1457 176.786V148.584M-27.1457 176.786H-55.4039M-27.1457 148.584V120.382M-27.1457 148.584H-55.4039M-27.1457 120.382V92.1794M-27.1457 120.382H-55.4039M-27.1457 92.1794V63.9772M-27.1457 92.1794H-55.4039M-27.1457 63.9772V35.7749M-27.1457 63.9772H-55.4039M-27.1457 35.7749V7.57259M-27.1457 35.7749H-55.4039M-27.1457 7.57259V-20.6297M-27.1457 7.57259H-55.4039M-27.1457 -20.6297V-48.832M-27.1457 -20.6297H-55.4039M-27.1457 -48.832V-77.0342M-27.1457 -48.832H-55.4039M-27.1457 -77.0342V-105.237M-27.1457 -77.0342H-55.4039M-27.1457 -105.237V-133.439M-27.1457 -105.237H-55.4039M-27.1457 -133.439V-161.641M-27.1457 -133.439H-55.4039M-27.1457 -161.641V-189.843M-27.1457 -161.641H-55.4039M-27.1457 -189.843V-218.046M-27.1457 -189.843H-55.4039M-27.1457 -218.046H-55.4039M-55.4039 346V317.798M-55.4039 346H-83.6614M-55.4039 317.798V289.595M-55.4039 317.798H-83.6614M-55.4039 289.595V261.393M-55.4039 289.595H-83.6614M-55.4039 261.393V233.191M-55.4039 261.393H-83.6614M-55.4039 233.191V204.989M-55.4039 233.191H-83.6614M-55.4039 204.989V176.786M-55.4039 204.989H-83.6614M-55.4039 176.786V148.584M-55.4039 176.786H-83.6614M-55.4039 148.584V120.382M-55.4039 148.584H-83.6614M-55.4039 120.382V92.1794M-55.4039 120.382H-83.6614M-55.4039 92.1794V63.9772M-55.4039 92.1794H-83.6614M-55.4039 63.9772V35.7749M-55.4039 63.9772H-83.6614M-55.4039 35.7749V7.57259M-55.4039 35.7749H-83.6614M-55.4039 7.57259V-20.6297M-55.4039 7.57259H-83.6614M-55.4039 -20.6297V-48.832M-55.4039 -20.6297H-83.6614M-55.4039 -48.832V-77.0342M-55.4039 -48.832H-83.6614M-55.4039 -77.0342V-105.237M-55.4039 -77.0342H-83.6614M-55.4039 -105.237V-133.439M-55.4039 -105.237H-83.6614M-55.4039 -133.439V-161.641M-55.4039 -133.439H-83.6614M-55.4039 -161.641V-189.843M-55.4039 -161.641H-83.6614M-55.4039 -189.843V-218.046M-55.4039 -189.843H-83.6614M-55.4039 -218.046H-83.6614M-83.6614 346V317.798M-83.6614 346H-111.92M-83.6614 317.798V289.595M-83.6614 317.798H-111.92M-83.6614 289.595V261.393M-83.6614 289.595H-111.92M-83.6614 261.393V233.191M-83.6614 261.393H-111.92M-83.6614 233.191V204.989M-83.6614 233.191H-111.92M-83.6614 204.989V176.786M-83.6614 204.989H-111.92M-83.6614 176.786V148.584M-83.6614 176.786H-111.92M-83.6614 148.584V120.382M-83.6614 148.584H-111.92M-83.6614 120.382V92.1794M-83.6614 120.382H-111.92M-83.6614 92.1794V63.9772M-83.6614 92.1794H-111.92M-83.6614 63.9772V35.7749M-83.6614 63.9772H-111.92M-83.6614 35.7749V7.57259M-83.6614 35.7749H-111.92M-83.6614 7.57259V-20.6297M-83.6614 7.57259H-111.92M-83.6614 -20.6297V-48.832M-83.6614 -20.6297H-111.92M-83.6614 -48.832V-77.0342M-83.6614 -48.832H-111.92M-83.6614 -77.0342V-105.237M-83.6614 -77.0342H-111.92M-83.6614 -105.237V-133.439M-83.6614 -105.237H-111.92M-83.6614 -133.439V-161.641M-83.6614 -133.439H-111.92M-83.6614 -161.641V-189.843M-83.6614 -161.641H-111.92M-83.6614 -189.843V-218.046M-83.6614 -189.843H-111.92M-83.6614 -218.046H-111.92M-111.92 346V317.798M-111.92 346H-140.178V317.798M-111.92 317.798V289.595M-111.92 317.798H-140.178M-111.92 289.595V261.393M-111.92 289.595H-140.178M-111.92 261.393V233.191M-111.92 261.393H-140.178M-111.92 233.191V204.989M-111.92 233.191H-140.178M-111.92 204.989V176.786M-111.92 204.989H-140.178M-111.92 176.786V148.584M-111.92 176.786H-140.178M-111.92 148.584V120.382M-111.92 148.584H-140.178M-111.92 120.382V92.1794M-111.92 120.382H-140.178M-111.92 92.1794V63.9772M-111.92 92.1794H-140.178M-111.92 63.9772V35.7749M-111.92 63.9772H-140.178M-111.92 35.7749V7.57259M-111.92 35.7749H-140.178M-111.92 7.57259V-20.6297M-111.92 7.57259H-140.178M-111.92 -20.6297V-48.832M-111.92 -20.6297H-140.178M-111.92 -48.832V-77.0342M-111.92 -48.832H-140.178M-111.92 -77.0342V-105.237M-111.92 -77.0342H-140.178M-111.92 -105.237V-133.439M-111.92 -105.237H-140.178M-111.92 -133.439V-161.641M-111.92 -133.439H-140.178M-111.92 -161.641V-189.843M-111.92 -161.641H-140.178M-111.92 -189.843V-218.046M-111.92 -189.843H-140.178M-111.92 -218.046H-140.178V-189.843M-140.178 317.798V289.595M-140.178 289.595V261.393M-140.178 261.393V233.191M-140.178 233.191V204.989M-140.178 204.989V176.786M-140.178 176.786V148.584M-140.178 148.584V120.382M-140.178 120.382V92.1794M-140.178 92.1794V63.9772M-140.178 63.9772V35.7749M-140.178 35.7749V7.57259M-140.178 7.57259V-20.6297M-140.178 -20.6297V-48.832M-140.178 -48.832V-77.0342M-140.178 -77.0342V-105.237M-140.178 -105.237V-133.439M-140.178 -133.439V-161.641M-140.178 -161.641V-189.843" stroke="url(#paint8_radial_1_4)"/>
</g>
<path d="M8 15.5C3.85775 15.5 0.5 12.1423 0.5 8C0.5 3.85775 3.85775 0.5 8 0.5C12.1423 0.5 15.5 3.85775 15.5 8C15.5 12.1423 12.1423 15.5 8 15.5ZM7.2523 11L12.5548 5.69675L11.4943 4.63625L7.2523 8.879L5.1305 6.7573L4.07 7.8177L7.2523 11Z" fill="white"/>
</g>
<rect x="-43.5" y="-207.5" width="1119" height="379" rx="31.5" stroke="white" stroke-opacity="0.36"/>
</g>
</g>
<defs>
<filter id="filter0_i_1_4" x="-44" y="-208" width="1120" height="382" filterUnits="userSpaceOnUse" color-interpolation-filters="sRGB">
<feFlood flood-opacity="0" result="BackgroundImageFix"/>
<feBlend mode="normal" in="SourceGraphic" in2="BackgroundImageFix" result="shape"/>
<feColorMatrix in="SourceAlpha" type="matrix" values="0 0 0 0 0 0 0 0 0 0 0 0 0 0 0 0 0 0 127 0" result="hardAlpha"/>
<feMorphology radius="1" operator="erode" in="SourceAlpha" result="effect1_innerShadow_1_4"/>
<feOffset dy="2"/>
<feGaussianBlur stdDeviation="3"/>
<feComposite in2="hardAlpha" operator="arithmetic" k2="-1" k3="1"/>
<feColorMatrix type="matrix" values="0 0 0 0 1 0 0 0 0 1 0 0 0 0 1 0 0 0 0.2 0"/>
<feBlend mode="normal" in2="shape" result="effect1_innerShadow_1_4"/>
</filter>
<filter id="filter1_f_1_4" x="-643.158" y="-387.214" width="936.097" height="910.068" filterUnits="userSpaceOnUse" color-interpolation-filters="sRGB">
<feFlood flood-opacity="0" result="BackgroundImageFix"/>
<feBlend mode="normal" in="SourceGraphic" in2="BackgroundImageFix" result="shape"/>
<feGaussianBlur stdDeviation="40" result="effect1_foregroundBlur_1_4"/>
</filter>
<filter id="filter2_f_1_4" x="-425.925" y="-397.691" width="936.097" height="910.067" filterUnits="userSpaceOnUse" color-interpolation-filters="sRGB">
<feFlood flood-opacity="0" result="BackgroundImageFix"/>
<feBlend mode="normal" in="SourceGraphic" in2="BackgroundImageFix" result="shape"/>
<feGaussianBlur stdDeviation="40" result="effect1_foregroundBlur_1_4"/>
</filter>
<filter id="filter3_f_1_4" x="-342.523" y="-291.067" width="936.097" height="910.067" filterUnits="userSpaceOnUse" color-interpolation-filters="sRGB">
<feFlood flood-opacity="0" result="BackgroundImageFix"/>
<feBlend mode="normal" in="SourceGraphic" in2="BackgroundImageFix" result="shape"/>
<feGaussianBlur stdDeviation="40" result="effect1_foregroundBlur_1_4"/>
</filter>
<filter id="filter4_f_1_4" x="-643.158" y="-387.214" width="936.097" height="910.068" filterUnits="userSpaceOnUse" color-interpolation-filters="sRGB">
<feFlood flood-opacity="0" result="BackgroundImageFix"/>
<feBlend mode="normal" in="SourceGraphic" in2="BackgroundImageFix" result="shape"/>
<feGaussianBlur stdDeviation="40" result="effect1_foregroundBlur_1_4"/>
</filter>
<filter id="filter5_f_1_4" x="-425.925" y="-397.691" width="936.097" height="910.067" filterUnits="userSpaceOnUse" color-interpolation-filters="sRGB">
<feFlood flood-opacity="0" result="BackgroundImageFix"/>
<feBlend mode="normal" in="SourceGraphic" in2="BackgroundImageFix" result="shape"/>
<feGaussianBlur stdDeviation="40" result="effect1_foregroundBlur_1_4"/>
</filter>
<filter id="filter6_f_1_4" x="-342.523" y="-291.067" width="936.097" height="910.067" filterUnits="userSpaceOnUse" color-interpolation-filters="sRGB">
<feFlood flood-opacity="0" result="BackgroundImageFix"/>
<feBlend mode="normal" in="SourceGraphic" in2="BackgroundImageFix" result="shape"/>
<feGaussianBlur stdDeviation="40" result="effect1_foregroundBlur_1_4"/>
</filter>
<linearGradient id="paint0_linear_1_4" x1="1440" y1="2297.61" x2="-30.3972" y2="2217.08" gradientUnits="userSpaceOnUse">
<stop stop-color="#0BA8A8"/>
<stop offset="0.584" stop-color="#34FFB6" stop-opacity="0.540083"/>
<stop offset="1" stop-opacity="0"/>
<stop offset="1" stop-color="#002828" stop-opacity="0"/>
</linearGradient>
<linearGradient id="paint1_linear_1_4" x1="1440" y1="2297.61" x2="-30.3972" y2="2217.08" gradientUnits="userSpaceOnUse">
<stop stop-color="#002828" stop-opacity="0"/>
<stop offset="0.584" stop-color="#58D4FB" stop-opacity="0.540083"/>
<stop offset="1" stop-color="#0CA1D0"/>
</linearGradient>
<linearGradient id="paint2_linear_1_4" x1="-550.129" y1="430.433" x2="-114.82" y2="-26.2067" gradientUnits="userSpaceOnUse">
<stop stop-color="white" stop-opacity="0"/>
<stop offset="1" stop-color="white"/>
</linearGradient>
<linearGradient id="paint3_linear_1_4" x1="-332.897" y1="419.955" x2="102.413" y2="-36.6848" gradientUnits="userSpaceOnUse">
<stop stop-color="white" stop-opacity="0"/>
<stop offset="1" stop-color="white"/>
</linearGradient>
<linearGradient id="paint4_linear_1_4" x1="-249.495" y1="526.579" x2="185.815" y2="69.9392" gradientUnits="userSpaceOnUse">
<stop stop-color="white" stop-opacity="0"/>
<stop offset="1" stop-color="white"/>
</linearGradient>
<linearGradient id="paint5_linear_1_4" x1="-550.129" y1="430.433" x2="-114.82" y2="-26.2067" gradientUnits="userSpaceOnUse">
<stop stop-color="white" stop-opacity="0"/>
<stop offset="1" stop-color="white"/>
</linearGradient>
<linearGradient id="paint6_linear_1_4" x1="-332.897" y1="419.955" x2="102.413" y2="-36.6848" gradientUnits="userSpaceOnUse">
<stop stop-color="white" stop-opacity="0"/>
<stop offset="1" stop-color="white"/>
</linearGradient>
<linearGradient id="paint7_linear_1_4" x1="-249.495" y1="526.579" x2="185.815" y2="69.9392" gradientUnits="userSpaceOnUse">
<stop stop-color="white" stop-opacity="0"/>
<stop offset="1" stop-color="white"/>
</linearGradient>
<radialGradient id="paint8_radial_1_4" cx="0" cy="0" r="1" gradientUnits="userSpaceOnUse" gradientTransform="translate(481.5 53.0489) rotate(-90) scale(179.493 471.057)">
<stop stop-color="white" stop-opacity="0.65"/>
<stop offset="1" stop-color="white" stop-opacity="0"/>
</radialGradient>
<clipPath id="clip0_1_4">
<rect width="1440" height="5736" fill="white" transform="translate(-204 -3960)"/>
</clipPath>
<clipPath id="clip1_1_4">
<rect x="-44" y="-208" width="1120" height="380" rx="32" fill="white"/>
</clipPath>
<clipPath id="clip2_1_4">
<rect width="578" height="543" fill="white" transform="translate(-46 -325)"/>
</clipPath>
</defs>
</svg>
